<svg xmlns="http://www.w3.org/2000/svg" width="392" height="392" viewBox="0 0 392 392">
	<style type="text/css">
		.st0{fill:#1a150f;}
	</style>
	<path class="st0" d="M165.19,297.51C92.16,297.51 32.8,238.15 32.8,165.19C32.8,92.23 92.16,32.8 165.19,32.8C238.16,32.8 297.6,92.23 297.6,165.19C297.6,238.15 238.16,297.51 165.19,297.51M387.19,364.15L292.96,269.92C316.32,241.44 330.39,204.96 330.39,165.19C330.39,73.99 256.39,0 165.19,0C73.92,0 0,73.99 0,165.19C0,256.39 73.92,330.39 165.19,330.39C204.96,330.39 241.35,316.39 269.83,293.03L364.07,387.19C370.48,393.6 380.8,393.6 387.19,387.19C393.6,380.87 393.6,370.47 387.19,364.15"/>
</svg>