<svg xmlns="http://www.w3.org/2000/svg" width="512" height="467.18" viewBox="0 0 512 467.18">
	<style type="text/css">
		.st0{fill:#000000;}
	</style>
	<path class="st0" d="M278.02,272.21C278.02,284.42 291.81,291.41 301.67,284.47L356.45,245.85C364.91,239.88 364.9,227.3 356.45,221.33L301.67,182.71C291.74,175.71 278.02,182.84 278.02,194.97L278.02,218.59L15,218.59C6.71,218.59 0,225.3 0,233.59C0,241.87 6.71,248.59 15,248.59L278.02,248.59Z"/>
	<path class="st0" d="M278.4,0C192.25,0 116.58,46.75 76.07,116.78C71.92,123.95 74.37,133.13 81.54,137.27C88.71,141.42 97.89,138.97 102.04,131.8C137.27,70.89 203.13,30 278.4,30C390.66,30 482,121.33 482,233.59C482,345.85 390.66,437.18 278.4,437.18C203.08,437.18 137.25,396.25 102.04,335.38C97.89,328.2 88.71,325.76 81.54,329.9C74.37,334.05 71.92,343.23 76.07,350.4C116.59,420.44 192.27,467.18 278.4,467.18C407.51,467.18 512,362.71 512,233.59C512,104.48 407.52,0 278.4,0"/>
</svg>